<svg xmlns="http://www.w3.org/2000/svg" viewBox="0 0 160 160"><rect width="160" height="160" rx="28" fill="#f7f3ef"/><path d="M48 58h56a0 0 0 0 1 0 0v26a24 24 0 0 1-24 24H72a24 24 0 0 1-24-24V58a0 0 0 0 1 0 0Z" fill="#fdfdfd" stroke="#b8a08e" stroke-width="4"/><path d="M104 66h8a12 12 0 0 1 0 24h-8" fill="none" stroke="#b8a08e" stroke-width="4"/><path d="M56 58c10 18 38 18 48 0" fill="#6f4328"/><path d="M66 40c0 10-8 10-8 20" stroke="#b8a08e" stroke-width="4" stroke-linecap="round" fill="none"/><path d="M82 36c0 12-8 12-8 24" stroke="#b8a08e" stroke-width="4" stroke-linecap="round" fill="none"/><text x="80" y="142" text-anchor="middle" font-family="Arial, sans-serif" font-size="16" font-weight="700" fill="#6f4328">COFFEE</text></svg>